<?xml version="1.0" encoding="utf-8"?>
<svg id="master-artboard" viewBox="0 0 1400 980" version="1.1" xmlns="http://www.w3.org/2000/svg" x="0px" y="0px" style="enable-background:new 0 0 1400 980;" width="1400px" height="980px"><defs><linearGradient id="gradient-0" gradientUnits="userSpaceOnUse" x1="431.8515625" y1="314" x2="431.8515625" y2="323.109375">
                <stop offset="0" style="stop-color: #4a4a4a"/>
                <stop offset="1" style="stop-color: #171717"/>
              </linearGradient></defs><g transform="matrix(2.3277909755706787, 0, 0, 2.3277909755706787, 212.32785034179693, -5.684341886080802e-14)"><path d="M224.808,2.656c-10.279,-0.764 -20.6,-0.764 -30.879,0l-7.947,16.994c-6.685,0.82 -13.322,1.99 -19.883,3.506l-13.281,-13.251c-9.92,2.798 -19.618,6.328 -29.016,10.561l-1.655,18.688c-6.002,3.056 -11.838,6.426 -17.486,10.095l-17.011,-7.91c-8.365,6.022 -16.272,12.656 -23.655,19.848l4.836,18.127c-4.594,4.924 -8.926,10.087 -12.978,15.466l-18.691,-1.614c-5.801,8.519 -10.961,17.458 -15.439,26.741l10.744,15.38c-2.633,6.199 -4.938,12.532 -6.906,18.972l-18.116,4.876c-2.537,9.99 -4.329,20.154 -5.362,30.409l15.356,10.778c-0.353,6.725 -0.353,13.464 0,20.19l-15.356,10.777c1.033,10.255 2.825,20.42 5.362,30.41l18.116,4.875c1.968,6.441 4.273,12.774 6.906,18.973l-10.744,15.379c4.478,9.284 9.638,18.222 15.439,26.742l18.691,-1.615c4.052,5.379 8.384,10.542 12.978,15.467l-4.836,18.126c7.383,7.192 15.29,13.827 23.655,19.849l17.011,-7.91c5.648,3.669 11.484,7.038 17.486,10.095l1.655,18.687c9.398,4.233 19.096,7.763 29.016,10.561l13.281,-13.251c6.561,1.516 13.198,2.686 19.883,3.506l7.947,16.994c10.279,0.764 20.6,0.764 30.879,0l7.947,-16.994c6.685,-0.82 13.321,-1.99 19.883,-3.506l13.281,13.251c9.92,-2.798 19.618,-6.328 29.016,-10.561l1.655,-18.687c6.002,-3.057 11.838,-6.426 17.486,-10.095l17.011,7.91c8.365,-6.022 16.272,-12.657 23.654,-19.849l-4.835,-18.126c4.594,-4.925 8.926,-10.088 12.978,-15.467l18.691,1.615c5.8,-8.52 10.961,-17.458 15.439,-26.742l-10.744,-15.379c2.633,-6.199 4.938,-12.532 6.905,-18.973l18.117,-4.875c2.537,-9.99 4.329,-20.155 5.362,-30.41l-15.357,-10.777c0.354,-6.726 0.354,-13.465 0,-20.19l15.357,-10.778c-1.033,-10.255 -2.825,-20.419 -5.362,-30.409l-18.117,-4.876c-1.967,-6.44 -4.272,-12.773 -6.905,-18.972l10.744,-15.38c-4.478,-9.283 -9.639,-18.222 -15.439,-26.741l-18.691,1.614c-4.052,-5.379 -8.384,-10.542 -12.978,-15.466l4.835,-18.127c-7.382,-7.192 -15.289,-13.826 -23.654,-19.848l-17.011,7.91c-5.648,-3.669 -11.484,-7.039 -17.486,-10.095l-1.655,-18.688c-9.398,-4.233 -19.096,-7.763 -29.016,-10.561l-13.281,13.251c-6.562,-1.516 -13.198,-2.686 -19.883,-3.506l-7.947,-16.994Z" style="fill:none;stroke:#2ca7ea;stroke-width:4.17px;stroke-linecap:round;"/><path d="M38.319,256.249c20.744,77.418 90.901,131.251 171.049,131.251c46.966,0 92.008,-18.657 125.217,-51.867c-33.209,33.21 -78.251,51.867 -125.217,51.867c-80.148,0 -150.305,-53.833 -171.049,-131.251Z" style="fill:none;stroke:#00e5b6;stroke-width:4.17px;stroke-linecap:round;"/><path d="M255.201,39.367c-14.948,-4.005 -30.357,-6.034 -45.833,-6.034c-97.735,0 -177.083,79.349 -177.083,177.084c0,15.475 2.029,30.884 6.034,45.832c-4.005,-14.948 -6.034,-30.357 -6.034,-45.832c0,-97.735 79.348,-177.084 177.083,-177.084c15.476,0 30.885,2.029 45.833,6.034Z" style="fill:none;stroke:#10e2e3;stroke-width:4.17px;stroke-linecap:round;"/><path d="M334.585,335.634c33.21,-33.21 51.867,-78.252 51.867,-125.217c0,-80.149 -53.833,-150.306 -131.251,-171.05c77.418,20.744 131.251,90.901 131.251,171.05c0,46.965 -18.657,92.007 -51.867,125.217Z" style="fill:none;stroke:#00aac2;stroke-width:4.17px;stroke-linecap:round;"/><g transform="matrix(4.13767,0.490699,-0.490699,4.13767,-1497.68,-1200.58)"><g transform="matrix(0.825428,0.564507,-0.564507,0.825428,253.599,-183.193)"><text x="422.992px" y="318.431px" style="font-family: HiraKakuStd-W8, 'Hiragino Kaku Gothic Std', sans-serif; font-weight: 800; font-size: 8px; fill: rgb(74, 74, 74); white-space: pre;">N</text></g><g transform="matrix(0.9916794300079346, 0.1287471354007721, -0.1287471354007721, 0.9916794300079346, 51.63494880636068, -49.51156429357155)"><text class="single-line-text" dominant-baseline="text-before-edge" style="font-family: HiraKakuStd-W8, 'Hiragino Kaku Gothic Std', sans-serif; font-weight: 800; font-size: 8px; fill: rgb(74, 74, 74); white-space: pre; color: rgb(74, 74, 74);" x="428.987px" y="314">C</text></g><g transform="matrix(0.9263351559638977, 0.3767056763172149, -0.3767056763172149, 0.9263351559638977, 148.5205091860994, -142.138899411559)"><text class="single-line-text" dominant-baseline="text-before-edge" style="font-family: HiraKakuStd-W8, 'Hiragino Kaku Gothic Std', sans-serif; font-weight: 800; font-size: 8px; fill: rgb(74, 74, 74); white-space: pre; color: rgb(74, 74, 74);" x="435.402px" y="316">Y</text></g><g transform="matrix(0.998948,0.0458467,-0.0458467,0.998948,15.4507,-19.9062)"><text x="441.688px" y="326.879px" style="font-family: HiraKakuStd-W8, 'Hiragino Kaku Gothic Std', sans-serif; font-weight: 800; font-size: 8px; fill: rgb(74, 74, 74); white-space: pre;">U</text></g><g transform="matrix(0.968781,-0.247919,0.247919,0.968781,-66.9094,122.33)"><text x="452.271px" y="326.837px" style="font-family: HiraKakuStd-W8, 'Hiragino Kaku Gothic Std', sans-serif; font-weight: 800; font-size: 8px; fill: rgb(74, 74, 74); white-space: pre;">O</text></g><g transform="matrix(0.903198,-0.429224,0.429224,0.903198,-95.0377,228.605)"><text x="459.303px" y="325.003px" style="font-family: HiraKakuStd-W8, 'Hiragino Kaku Gothic Std', sans-serif; font-weight: 800; font-size: 8px; fill: rgb(74, 74, 74); white-space: pre;">A</text></g><g transform="matrix(0.811271,-0.58467,0.58467,0.811271,-100.286,333.091)"><text x="465.804px" y="321.885px" style="font-family: HiraKakuStd-W8, 'Hiragino Kaku Gothic Std', sans-serif; font-weight: 800; font-size: 8px; fill: rgb(74, 74, 74); white-space: pre;">U</text></g><g transform="matrix(0.707968,-0.706244,0.706244,0.707968,-86.4429,425.915)"><text x="471.791px" y="317.483px" style="font-family: HiraKakuStd-W8, 'Hiragino Kaku Gothic Std', sans-serif; font-weight: 800; font-size: 8px; fill: rgb(74, 74, 74); white-space: pre;">T</text></g><g transform="matrix(0.596748,-0.802429,0.802429,0.596748,-58.9107,508.46)"><text x="476.436px" y="312.843px" style="font-family: HiraKakuStd-W8, 'Hiragino Kaku Gothic Std', sans-serif; font-weight: 800; font-size: 8px; fill: rgb(74, 74, 74); white-space: pre;">H</text></g></g></g><g transform="matrix(2.3277909755706787, 0, 0, 2.3277909755706787, 212.32785034179693, -5.684341886080802e-14)"><g><g><path d="M270.728,138.549c0,-33.888 -27.472,-61.36 -61.36,-61.36c-33.887,0 -61.359,27.472 -61.359,61.36c0,-33.888 27.472,-61.36 61.359,-61.36c33.888,0 61.36,27.472 61.36,61.36Z" style="fill:none;stroke:#ffd247;stroke-width:10.42px;stroke-linecap:round;"/><path d="M147.995,137.582l0,30.68" style="fill:none;stroke:#ffd247;stroke-width:10.42px;stroke-linecap:round;"/></g><path d="M133.921,184.141c-10.841,15.483 -16.657,33.927 -16.657,52.829c0,50.833 41.271,92.104 92.104,92.104c50.834,0 92.104,-41.271 92.104,-92.104c0,-50.834 -41.27,-92.105 -92.104,-92.105c-22.483,0 -44.19,8.225 -61.03,23.123c16.84,-14.898 38.547,-23.123 61.03,-23.123c50.834,0 92.104,41.271 92.104,92.105c0,50.833 -41.27,92.104 -92.104,92.104c-50.833,0 -92.104,-41.271 -92.104,-92.104c0,-18.902 5.816,-37.346 16.657,-52.829Z" style="fill:none;stroke:#ffd247;stroke-width:10.42px;stroke-linecap:round;"/><path d="M235.361,219.785c2.635,-4.563 4.021,-9.738 4.021,-15.007c0,-16.565 -13.448,-30.014 -30.014,-30.014c-16.565,0 -30.014,13.449 -30.014,30.014c0,9.793 4.778,18.969 12.799,24.586c-8.021,-5.617 -12.799,-14.793 -12.799,-24.586c0,-16.565 13.449,-30.014 30.014,-30.014c16.566,0 30.014,13.449 30.014,30.014c0,5.269 -1.386,10.444 -4.021,15.007Z" style="fill:none;stroke:#ffd247;stroke-width:10.42px;stroke-linecap:square;"/></g><path d="M192.249,230.869l-11.63,68.926l59.613,0l-12.07,-61.321" style="fill:none;stroke:#ffd247;stroke-width:10.42px;stroke-linecap:round;"/></g></svg>